<svg xmlns="http://www.w3.org/2000/svg" viewBox="0 0 512 512" xmlns:v="https://vecta.io/nano"><path d="M0.000 139.482 L 0.000 278.964 5.333 276.978 C 8.267 275.886,23.147 270.459,38.400 264.918 C 53.653 259.377,66.234 254.779,66.357 254.700 C 66.544 254.580,59.378 234.449,56.445 226.854 L 55.570 224.588 44.212 228.764 C 37.965 231.061,32.757 232.944,32.640 232.950 C 32.523 232.955,32.427 187.840,32.427 132.693 L 32.427 32.427 256.000 32.427 L 479.573 32.427 479.573 116.480 C 479.573 162.709,479.440 200.533,479.278 200.533 C 479.116 200.533,453.905 191.125,423.253 179.627 C 392.602 168.128,367.006 158.720,366.374 158.720 C 365.742 158.720,344.168 172.757,318.433 189.913 L 271.641 221.106 233.178 198.020 C 212.023 185.322,194.200 174.927,193.571 174.919 C 192.702 174.909,147.288 190.891,146.104 191.624 C 145.970 191.707,148.299 198.449,151.279 206.607 C 155.177 217.279,157.040 221.364,157.921 221.167 C 158.595 221.017,166.161 218.374,174.735 215.293 L 190.323 209.691 230.345 233.699 C 252.357 246.903,270.937 257.925,271.633 258.193 C 272.411 258.491,291.652 246.174,321.466 226.294 L 370.031 193.909 440.301 220.261 C 478.949 234.755,510.892 246.613,511.285 246.613 C 511.678 246.613,512.000 191.125,512.000 123.307 L 512.000 0.000 256.000 0.000 L 0.000 0.000 0.000 139.482 M100.347 208.269 C 92.882 211.044,86.583 213.506,86.349 213.740 C 85.875 214.214,95.444 241.483,96.504 242.679 C 97.094 243.345,122.381 234.850,125.444 232.957 C 126.345 232.401,125.822 230.166,122.917 222.155 C 116.382 204.133,115.944 203.092,114.925 203.158 C 114.372 203.194,107.812 205.494,100.347 208.269 M318.611 269.643 L 271.569 301.095 232.625 277.727 L 193.681 254.359 173.854 261.582 C 162.949 265.554,153.588 268.967,153.051 269.167 C 152.413 269.404,153.901 274.553,157.358 284.066 C 160.262 292.062,162.830 298.794,163.063 299.028 C 163.296 299.261,169.204 297.355,176.190 294.793 C 183.176 292.230,189.371 290.133,189.956 290.133 C 190.540 290.133,209.320 301.118,231.688 314.543 L 272.357 338.952 321.171 306.420 L 369.985 273.887 420.299 292.762 C 447.972 303.144,472.629 312.395,475.093 313.320 L 479.573 315.003 479.573 397.715 L 479.573 480.427 255.995 480.427 L 32.416 480.427 32.635 413.667 L 32.853 346.908 52.053 339.897 C 62.613 336.041,71.608 332.749,72.042 332.580 C 72.660 332.340,68.743 320.594,62.511 304.000 C 62.291 303.413,61.675 302.933,61.142 302.933 C 60.609 302.933,46.640 307.829,30.100 313.813 L 0.027 324.693 0.014 418.347 L 0.000 512.000 256.000 512.000 L 512.000 512.000 512.000 402.454 L 512.000 292.908 439.680 265.799 C 399.904 250.889,366.976 238.578,366.507 238.441 C 366.037 238.304,344.484 252.345,318.611 269.643 M106.686 285.966 C 98.953 288.784,92.496 291.220,92.337 291.379 C 92.178 291.538,94.036 297.178,96.466 303.914 C 98.896 310.649,101.263 317.216,101.726 318.507 C 102.188 319.797,103.037 320.853,103.612 320.853 C 104.583 320.853,132.332 310.890,132.712 310.405 C 133.125 309.878,122.195 281.234,121.510 281.049 C 121.090 280.935,114.419 283.148,106.686 285.966 " stroke="none" fill-rule="evenodd"></path></svg>