<svg id="menu" xmlns="http://www.w3.org/2000/svg" viewBox="0 0 19.947 19.947">
  <g id="Group_370" data-name="Group 370">
    <g id="Group_369" data-name="Group 369">
      <path id="Path_762" data-name="Path 762" d="M6.779,0H2.27A2.273,2.273,0,0,0,0,2.27V6.779a2.273,2.273,0,0,0,2.27,2.27H6.779a2.273,2.273,0,0,0,2.27-2.27V2.27A2.273,2.273,0,0,0,6.779,0Zm.737,6.779a.737.737,0,0,1-.737.737H2.27a.737.737,0,0,1-.737-.737V2.27a.737.737,0,0,1,.737-.737H6.779a.737.737,0,0,1,.737.737Z"/>
    </g>
  </g>
  <g id="Group_372" data-name="Group 372" transform="translate(10.898)">
    <g id="Group_371" data-name="Group 371">
      <path id="Path_763" data-name="Path 763" d="M282.748,0H278.3A2.3,2.3,0,0,0,276,2.3V6.748a2.3,2.3,0,0,0,2.3,2.3h4.448a2.3,2.3,0,0,0,2.3-2.3V2.3A2.3,2.3,0,0,0,282.748,0Zm.767,6.748a.768.768,0,0,1-.767.767H278.3a.768.768,0,0,1-.767-.767V2.3a.768.768,0,0,1,.767-.767h4.448a.768.768,0,0,1,.767.767Z" transform="translate(-276)"/>
    </g>
  </g>
  <g id="Group_374" data-name="Group 374" transform="translate(0 10.898)">
    <g id="Group_373" data-name="Group 373">
      <path id="Path_764" data-name="Path 764" d="M6.779,276H2.27A2.273,2.273,0,0,0,0,278.27v4.509a2.273,2.273,0,0,0,2.27,2.27H6.779a2.273,2.273,0,0,0,2.27-2.27V278.27A2.273,2.273,0,0,0,6.779,276Zm.737,6.779a.737.737,0,0,1-.737.737H2.27a.737.737,0,0,1-.737-.737V278.27a.737.737,0,0,1,.737-.737H6.779a.737.737,0,0,1,.737.737Z" transform="translate(0 -276)"/>
    </g>
  </g>
  <g id="Group_376" data-name="Group 376" transform="translate(10.898 10.898)">
    <g id="Group_375" data-name="Group 375">
      <path id="Path_765" data-name="Path 765" d="M282.748,276H278.3a2.3,2.3,0,0,0-2.3,2.3v4.448a2.3,2.3,0,0,0,2.3,2.3h4.448a2.3,2.3,0,0,0,2.3-2.3V278.3A2.3,2.3,0,0,0,282.748,276Zm.767,6.748a.768.768,0,0,1-.767.767H278.3a.768.768,0,0,1-.767-.767V278.3a.768.768,0,0,1,.767-.767h4.448a.768.768,0,0,1,.767.767Z" transform="translate(-276 -276)"/>
    </g>
  </g>
</svg>
